<svg id="Layer_1" data-name="Layer 1" xmlns="http://www.w3.org/2000/svg" viewBox="0 0 1024 1024"><defs><style>.cls-1{fill:#fff;}.cls-2,.cls-3,.cls-4,.cls-5{fill:none;}.cls-2,.cls-3,.cls-4{stroke:#35425b;stroke-width:35px;}.cls-2,.cls-3{stroke-linecap:round;}.cls-3{stroke-linejoin:round;}</style></defs><path class="cls-1" d="M965.44,1024H58.56A58.73,58.73,0,0,1,0,965.44V58.56A58.73,58.73,0,0,1,58.56,0H965.44A58.73,58.73,0,0,1,1024,58.56V965.44A58.54,58.54,0,0,1,965.44,1024Z"/><g id="Grupo_5809" data-name="Grupo 5809"><path id="Trazado_3503" data-name="Trazado 3503" class="cls-2" d="M105.16,915.15,275.25,745.06"/><path id="Trazado_3510" data-name="Trazado 3510" class="cls-2" d="M116.32,769.65l91.76-91.76"/><path id="Unión_19" data-name="Unión 19" class="cls-3" d="M682.19,664.66C591.25,736.59,454.64,786,427.57,763.45c-23.56-23.56-69.24-68.4-82.47-81.22h0l-3.72-3.72h0c-13-13.43-57.66-58.9-81.42-82.67-22.53-27.07,26.86-163.68,98.78-254.62s167-171.53,288.52-209.15c76-23.56,156.45-28.72,216.38-27.07a63.12,63.12,0,0,1,39.68,11.57l.42-.41a8,8,0,0,1,1.65,2.07c.62.62,1.45,1,2.07,1.65l-.42.41A66.61,66.61,0,0,1,918.62,160c1.44,59.73-3.72,140.13-27.08,216.39-28.31,91.14-80.6,167.4-143.22,230A802.41,802.41,0,0,1,682.19,664.66Z"/><path id="Trazado_3507" data-name="Trazado 3507" class="cls-4" d="M287,458.41,565.62,737"/><path id="Trazado_3508" data-name="Trazado 3508" class="cls-3" d="M259.34,539.42,106.4,509.25l107-169.06,151.08-8.47"/><path id="Trazado_3509" data-name="Trazado 3509" class="cls-3" d="M486.26,766.35l30.59,152.93,168.64-107L694,661.15"/><path id="Trazado_3511" data-name="Trazado 3511" class="cls-2" d="M250.45,903.78,342.21,812"/><g id="Elipse_1601" data-name="Elipse 1601"><circle class="cls-5" cx="670.66" cy="349.35" r="110.48" transform="translate(-50.6 576.55) rotate(-45)"/><circle class="cls-4" cx="670.66" cy="349.35" r="94.41" transform="translate(-50.6 576.55) rotate(-45)"/></g></g></svg>